<?xml version="1.0" encoding="iso-8859-1"?>
<!-- Generator: Adobe Illustrator 16.0.0, SVG Export Plug-In . SVG Version: 6.00 Build 0)  -->
<!DOCTYPE svg PUBLIC "-//W3C//DTD SVG 1.1//EN" "http://www.w3.org/Graphics/SVG/1.1/DTD/svg11.dtd">
<svg version="1.1" id="Capa_1" xmlns="http://www.w3.org/2000/svg" xmlns:xlink="http://www.w3.org/1999/xlink" x="0px" y="0px"
	 width="466.787px" height="466.787px" viewBox="0 0 466.787 466.787" style="enable-background:new 0 0 466.787 466.787;"
	 xml:space="preserve">
<g>
	<g>
		<polygon points="330.194,307.505 347.286,360.725 329.601,366.406 310.741,307.684 311.294,307.505 309.845,307.505 
			291.882,363.434 274.196,357.751 290.331,307.505 117.244,307.505 74.509,466.457 392.278,466.787 349.479,307.505 		"/>
		<path d="M308.616,0h-150.02L41.948,89.865l-30,196.586h78.023V140.849l1.436-1.319l25.836,141.227h232.725l25.771-140.896
			l1.076,0.989v145.602h78.023l-30-196.586L308.616,0z M233.394,129.177l-68.26-99.201h136.519L233.394,129.177z"/>
	</g>
</g>
<g>
</g>
<g>
</g>
<g>
</g>
<g>
</g>
<g>
</g>
<g>
</g>
<g>
</g>
<g>
</g>
<g>
</g>
<g>
</g>
<g>
</g>
<g>
</g>
<g>
</g>
<g>
</g>
<g>
</g>
</svg>
